<svg t="1767779297927" class="icon" viewBox="0 0 1536 1024" version="1.1" xmlns="http://www.w3.org/2000/svg" p-id="9832" width="32" height="32"><path d="M7.314286 702.171429h1462.857143v73.142857H7.314286z" fill="#FFFFFF" p-id="9833"></path><path d="M7.314286 621.714286h1462.857143v73.142857H7.314286z" fill="#B41C31" p-id="9834"></path><path d="M7.314286 848.457143h1462.857143v73.142857H7.314286z" fill="#FFFFFF" p-id="9835"></path><path d="M7.314286 921.6h1462.857143v73.142857H7.314286zM7.314286 775.314286h1462.857143v73.142857H7.314286z" fill="#B41C31" p-id="9836"></path><path d="M7.314286 548.571429h1462.857143v73.142857H7.314286z" fill="#FFFFFF" p-id="9837"></path><path d="M7.314286 321.828571h1462.857143v73.142858H7.314286z" fill="#B41C31" p-id="9838"></path><path d="M7.314286 102.4h1462.857143v73.142857H7.314286z" fill="#FFFFFF" p-id="9839"></path><path d="M7.314286 175.542857h1462.857143v73.142857H7.314286zM7.314286 475.428571h1462.857143v73.142858H7.314286zM7.314286 21.942857h1462.857143v73.142857H7.314286z" fill="#B41C31" p-id="9840"></path><path d="M7.314286 248.685714h1462.857143v73.142857H7.314286zM7.314286 402.285714h1462.857143v73.142857H7.314286z" fill="#FFFFFF" p-id="9841"></path><path d="M7.314286 21.942857h585.142857v526.628572h-585.142857z" fill="#192F58" p-id="9842"></path><path d="M446.171429 51.2l7.314285 14.628571h7.314286l-7.314286 7.314286 7.314286 14.628572-14.628571-7.314286-7.314286 7.314286V73.142857L431.542857 65.828571h14.628572zM446.171429 160.914286l7.314285 14.628571h7.314286l-7.314286 7.314286 7.314286 14.628571-14.628571-7.314285-7.314286 7.314285v-14.628571l-7.314286-7.314286h14.628572zM446.171429 270.628571l7.314285 14.628572h7.314286l-7.314286 7.314286 7.314286 14.628571-14.628571-14.628571-7.314286 14.628571V292.571429l-7.314286-7.314286h14.628572zM446.171429 380.342857l7.314285 14.628572h7.314286l-7.314286 7.314285 7.314286 14.628572-14.628571-7.314286-7.314286 7.314286v-14.628572l-7.314286-7.314285h14.628572zM446.171429 490.057143l7.314285 14.628571h7.314286l-7.314286 7.314286 7.314286 7.314286-14.628571-7.314286-7.314286 7.314286V512l-7.314286-7.314286h14.628572zM351.085714 51.2v14.628571H365.714286l-7.314286 7.314286v14.628572l-7.314286-7.314286-14.628571 7.314286 7.314286-14.628572-14.628572-7.314286h14.628572zM351.085714 160.914286v14.628571H365.714286l-7.314286 7.314286v14.628571l-7.314286-7.314285-14.628571 7.314285 7.314286-14.628571-14.628572-7.314286h14.628572zM351.085714 270.628571v14.628572H365.714286l-7.314286 7.314286v14.628571L351.085714 292.571429l-14.628571 14.628571 7.314286-14.628571-14.628572-7.314286h14.628572zM351.085714 380.342857v14.628572H365.714286l-7.314286 7.314285v14.628572l-7.314286-7.314286-14.628571 7.314286 7.314286-14.628572-14.628572-7.314285h14.628572zM351.085714 490.057143v14.628571H365.714286l-7.314286 7.314286v7.314286L351.085714 512l-14.628571 7.314286 7.314286-7.314286-14.628572-7.314286h14.628572zM248.685714 51.2l7.314286 14.628571h14.628571l-14.628571 7.314286 7.314286 14.628572-14.628572-7.314286-7.314285 7.314286V73.142857L234.057143 65.828571h14.628571zM248.685714 160.914286l7.314286 14.628571h14.628571l-14.628571 7.314286 7.314286 14.628571-14.628572-7.314285-7.314285 7.314285v-14.628571l-7.314286-7.314286h14.628571zM248.685714 270.628571l7.314286 14.628572h14.628571l-14.628571 7.314286 7.314286 14.628571-14.628572-14.628571-7.314285 14.628571V292.571429l-7.314286-7.314286h14.628571zM248.685714 380.342857l7.314286 14.628572h14.628571l-14.628571 7.314285 7.314286 14.628572-14.628572-7.314286-7.314285 7.314286v-14.628572l-7.314286-7.314285h14.628571zM248.685714 490.057143l7.314286 14.628571h14.628571l-14.628571 7.314286 7.314286 7.314286-14.628572-7.314286-7.314285 7.314286V512l-7.314286-7.314286h14.628571zM153.6 51.2l7.314286 14.628571h7.314285l-7.314285 7.314286v14.628572l-7.314286-7.314286-7.314286 7.314286V73.142857L138.971429 65.828571H146.285714zM153.6 160.914286l7.314286 14.628571h7.314285l-7.314285 7.314286v14.628571l-7.314286-7.314285-7.314286 7.314285v-14.628571l-7.314285-7.314286H146.285714zM153.6 270.628571l7.314286 14.628572h7.314285l-7.314285 7.314286v14.628571L153.6 292.571429l-7.314286 14.628571V292.571429l-7.314285-7.314286H146.285714zM153.6 380.342857l7.314286 14.628572h7.314285l-7.314285 7.314285v14.628572l-7.314286-7.314286-7.314286 7.314286v-14.628572l-7.314285-7.314285H146.285714zM153.6 490.057143l7.314286 14.628571h7.314285l-7.314285 7.314286v7.314286L153.6 512l-7.314286 7.314286V512l-7.314285-7.314286H146.285714zM58.514286 51.2v14.628571H73.142857L58.514286 73.142857l7.314285 14.628572-7.314285-7.314286-14.628572 7.314286 7.314286-14.628572L36.571429 65.828571h14.628571zM58.514286 160.914286v14.628571H73.142857l-14.628571 7.314286 7.314285 14.628571-7.314285-7.314285-14.628572 7.314285 7.314286-14.628571-14.628571-7.314286h14.628571zM58.514286 270.628571v14.628572H73.142857L58.514286 292.571429l7.314285 14.628571L58.514286 292.571429l-14.628572 14.628571 7.314286-14.628571-14.628571-7.314286h14.628571zM58.514286 380.342857v14.628572H73.142857l-14.628571 7.314285 7.314285 14.628572-7.314285-7.314286-14.628572 7.314286 7.314286-14.628572-14.628571-7.314285h14.628571zM58.514286 490.057143v14.628571H73.142857L58.514286 512l7.314285 7.314286L58.514286 512l-14.628572 7.314286 7.314286-7.314286-14.628571-7.314286h14.628571zM497.371429 109.714286l7.314285 7.314285H512l-7.314286 7.314286v14.628572l-7.314285-7.314286-7.314286 7.314286v-14.628572l-7.314286-7.314286h7.314286zM497.371429 219.428571l7.314285 14.628572H512l-7.314286 7.314286v14.628571l-7.314285-14.628571-7.314286 14.628571v-14.628571l-7.314286-7.314286h7.314286zM497.371429 329.142857v14.628572H512l-7.314286 7.314285V365.714286l-7.314285-7.314286-14.628572 7.314286 7.314286-14.628572-14.628572-7.314285h14.628572zM497.371429 438.857143v14.628571H512l-7.314286 7.314286v14.628571l-7.314285-7.314285-14.628572 7.314285 7.314286-14.628571-14.628572-7.314286h14.628572zM402.285714 109.714286v7.314285h14.628572l-14.628572 7.314286 7.314286 14.628572-7.314286-7.314286-14.628571 7.314286 7.314286-14.628572-14.628572-7.314286h14.628572zM402.285714 219.428571v14.628572h14.628572l-14.628572 7.314286 7.314286 14.628571-7.314286-14.628571-14.628571 14.628571 7.314286-14.628571-14.628572-7.314286h14.628572zM394.971429 329.142857l7.314285 14.628572h14.628572l-14.628572 7.314285 7.314286 14.628572-14.628571-7.314286-7.314286 7.314286 7.314286-14.628572-14.628572-7.314285h14.628572zM394.971429 438.857143l7.314285 14.628571h14.628572l-14.628572 7.314286 7.314286 14.628571-14.628571-7.314285-7.314286 7.314285v-14.628571l-7.314286-7.314286h14.628572zM299.885714 102.4l7.314286 14.628571h14.628571l-14.628571 7.314286 7.314286 14.628572-14.628572-7.314286-7.314285 7.314286v-14.628572l-7.314286-7.314286h14.628571zM299.885714 219.428571l7.314286 7.314286h14.628571l-14.628571 7.314286 7.314286 14.628571-14.628572-7.314285-7.314285 7.314285v-14.628571l-7.314286-7.314286h14.628571zM299.885714 329.142857l7.314286 7.314286h7.314286l-7.314286 7.314286 7.314286 14.628571-14.628572-7.314286-7.314285 7.314286v-14.628571l-7.314286-7.314286h14.628571zM299.885714 438.857143v7.314286h14.628572l-7.314286 7.314285v14.628572l-7.314286-7.314286-14.628571 7.314286 7.314286-14.628572-7.314286-7.314285H292.571429zM204.8 102.4v14.628571H219.428571l-7.314285 7.314286v7.314286l-7.314286-7.314286-14.628571 7.314286 7.314285-7.314286-14.628571-7.314286h14.628571zM204.8 212.114286v14.628571H219.428571l-7.314285 7.314286v14.628571l-7.314286-7.314285-14.628571 7.314285 7.314285-14.628571-14.628571-7.314286h14.628571zM204.8 321.828571v14.628572H219.428571l-7.314285 7.314286v14.628571l-7.314286-7.314286-14.628571 7.314286 7.314285-14.628571-14.628571-7.314286h14.628571zM204.8 431.542857v14.628572H219.428571l-14.628571 7.314285 7.314286 14.628572-7.314286-7.314286-14.628571 7.314286 7.314285-14.628572-14.628571-7.314285h14.628571zM102.4 102.4l7.314286 7.314286h14.628571l-14.628571 7.314285 7.314285 14.628572-14.628571-7.314286-7.314286 7.314286 7.314286-14.628572-14.628571-7.314285h14.628571zM102.4 212.114286l7.314286 14.628571h14.628571l-14.628571 7.314286 7.314285 14.628571-14.628571-7.314285-7.314286 7.314285 7.314286-14.628571-14.628571-7.314286h14.628571zM102.4 321.828571l7.314286 14.628572h14.628571l-14.628571 7.314286 7.314285 14.628571-14.628571-7.314286-7.314286 7.314286v-14.628571l-7.314285-7.314286h14.628571zM102.4 431.542857l7.314286 14.628572h7.314285l-7.314285 7.314285 7.314285 14.628572-14.628571-7.314286-7.314286 7.314286v-14.628572l-7.314285-7.314285h14.628571zM548.571429 51.2v14.628571h14.628571l-14.628571 7.314286 7.314285 14.628572-7.314285-7.314286-14.628572 7.314286 7.314286-14.628572-14.628572-7.314286h14.628572zM548.571429 160.914286v14.628571h14.628571l-14.628571 7.314286 7.314285 14.628571-7.314285-7.314285-14.628572 7.314285 7.314286-14.628571-14.628572-7.314286h14.628572zM548.571429 270.628571v14.628572h14.628571l-14.628571 7.314286 7.314285 14.628571-7.314285-14.628571-14.628572 14.628571 7.314286-14.628571-14.628572-7.314286h14.628572zM548.571429 380.342857v14.628572h14.628571l-14.628571 7.314285 7.314285 14.628572-7.314285-7.314286-14.628572 7.314286 7.314286-14.628572-14.628572-7.314285h14.628572zM548.571429 490.057143v14.628571h14.628571l-14.628571 7.314286 7.314285 7.314286-7.314285-7.314286-14.628572 7.314286 7.314286-7.314286-14.628572-7.314286h14.628572z" fill="#FFFFFF" p-id="9843"></path></svg>